<?xml version="1.0" encoding="UTF-8"?>
<svg id="Capa_2" data-name="Capa 2" xmlns="http://www.w3.org/2000/svg" viewBox="0 0 266.27 81.84">
  <g id="Capa_1-2" data-name="Capa 1">
    <g>
      <path d="M39.36,27.67c-3.07-1.73-6.77-2.6-11.1-2.6s-7.94,1.07-11.04,3.19c-2.09,1.43-3.84,3.32-5.27,5.63l-.57-7.52H0v54.14h12.13v-28.26c0-5.12,1.12-9.06,3.36-11.8,2.24-2.74,5.38-4.08,9.42-4.01,2.38,0,4.46.47,6.23,1.41,1.77.94,3.14,2.58,4.11,4.93.97,2.35,1.46,5.68,1.46,10.02v27.72h12.13v-30.54c0-5.85-.81-10.59-2.44-14.24-1.62-3.64-3.97-6.33-7.04-8.07Z"/>
      <path d="M202.6,54.63c0,5.13-1.12,9.06-3.36,11.8-2.24,2.74-5.41,4.08-9.53,4.01-2.31,0-4.35-.47-6.12-1.41-1.77-.94-3.16-2.6-4.17-4.98-1.01-2.38-1.52-5.7-1.52-9.96v-27.72h-12.13v.05h-5.34l.03-.05h-14.29l-10.95,16.39-11.03-16.39h-14.29l18.71,26.08-13.18,18.39h-33.18v.08c-2.32-.18-4.47-.81-6.45-1.89-2.38-1.3-4.3-3.16-5.74-5.58-1.22-2.04-1.92-4.41-2.11-7.09h40.87c0-6.5-1.14-12.09-3.41-16.78-2.27-4.69-5.36-8.28-9.26-10.77-3.9-2.49-8.27-3.74-13.1-3.74-5.34,0-10.09,1.21-14.24,3.63-4.15,2.42-7.42,5.76-9.8,10.02-2.38,4.26-3.57,9.17-3.57,14.73s1.17,10.47,3.52,14.73c2.34,4.26,5.56,7.6,9.64,10.02,3.98,2.36,8.53,3.56,13.65,3.62v.04h39.75l.97-1.33h.04l12.3-18.25,12.06,18.25h14.4l-19.82-27.93,10.72-15.17h13.11v19.49c0,5.78.83,10.5,2.49,14.19,1.66,3.68,4.02,6.39,7.09,8.12,3.07,1.73,6.73,2.6,10.99,2.6s8.03-1.07,11.1-3.19c2.09-1.45,3.85-3.36,5.3-5.71l.5,7.6h11.37V26.37h-12.02v28.26ZM70.82,41.26c1.44-1.91,3.25-3.36,5.41-4.33,2.17-.97,4.33-1.46,6.5-1.46s4.24.49,6.23,1.46c1.98.97,3.63,2.42,4.93,4.33,1.07,1.57,1.69,3.51,1.88,5.79h-27.04c.21-2.28.9-4.22,2.09-5.79Z"/>
      <path d="M264.65,58.7c-1.08-2.27-2.74-4.33-4.98-6.17-2.24-1.84-5.13-3.19-8.66-4.06l-6.39-1.52c-2.31-.58-4.08-1.32-5.31-2.22-1.23-.9-1.84-1.9-1.84-2.98,0-1.88.69-3.34,2.06-4.39,1.37-1.05,3.28-1.57,5.74-1.57s4.69.49,6.71,1.46c2.02.97,3.39,2.37,4.12,4.17l10.07-4.55c-.79-2.38-2.2-4.46-4.22-6.23-2.02-1.77-4.42-3.14-7.2-4.11-2.78-.97-5.83-1.46-9.15-1.46-6.57,0-11.6,1.48-15.11,4.44-3.5,2.96-5.25,7.15-5.25,12.56,0,3.68,1.44,6.95,4.33,9.8,2.89,2.85,6.89,4.93,12.02,6.23l5.09,1.41c2.38.58,4.22,1.32,5.52,2.22,1.3.9,1.95,2.18,1.95,3.84s-.85,3.09-2.54,4.06c-1.7.97-3.95,1.46-6.77,1.46-2.6,0-4.96-.69-7.09-2.06-2.13-1.37-3.74-3.07-4.82-5.09l-10.5,4.66c1.15,2.67,2.82,5,4.98,6.98,2.17,1.99,4.76,3.52,7.8,4.6,3.03,1.08,6.35,1.62,9.96,1.62,4.04,0,7.65-.67,10.83-2,3.18-1.33,5.69-3.23,7.53-5.68,1.84-2.45,2.76-5.31,2.76-8.55,0-2.31-.54-4.6-1.62-6.88Z"/>
      <polygon points="144.97 14.92 135.25 0 125.5 14.92 135.25 29.85 144.97 14.92"/>
    </g>
  </g>
</svg>